# xmcd
#
# Track frame offsets:
#	150
#	12305
#	23874
#	34930
#	45632
#	56512
#	67038
#	77763
#	88391
#	99374
#	111800
#	121865
#	134574
#	146100
#	157533
#	170052
#	180190
#	189379
#	201050
#	211441
#	222828
#	233324
#	245596
#	256871
#
# Disc length: 3581 seconds
# Revision: 2
# Processed by: cddbd v1.5.2PL0 Copyright (c) Steve Scherf et al.
# Submitted via: dBpowerAMP V12.0
#
DISCID=480dfb18
DTITLE=Ernest Tubb - Daddy Of 'Em All - The Importance Of Being Ernest
DYEAR=1957
DGENRE=Classic Country
TTITLE0=You're breaking my heart
TTITLE1=i dreamed of an old love affair
TTITLE2=i know my baby loves me in her own peculiar way
TTITLE3=mississippi gal
TTITLE4=when a soldier knocks and finds nobody home
TTITLE5=daisy may
TTITLE6=i've got the blues for mammy
TTITLE7=this troubled mind o'mine
TTITLE8=i knew the moment i lost you
TTITLE9=you're the only good thing (that's happened to me)
TTITLE10=my hillbilly baby
TTITLE11=there's no fool like a young fool
TTITLE12=i'm a long gone daddy
TTITLE13=all those yesterdays
TTITLE14=san antonio rose
TTITLE15=that my darlin' is me
TTITLE16=educated mama
TTITLE17=the next voice you hear
TTITLE18=i wonder why i worry over you
TTITLE19=your cheatin' heart
TTITLE20=it makes no difference now
TTITLE21=i'm waiting for ships that never come in
TTITLE22=don't trade your old fashioned sweetheart
TTITLE23=it's the age that makes the difference
EXTD=
EXTT0=
EXTT1=
EXTT2=
EXTT3=
EXTT4=
EXTT5=
EXTT6=
EXTT7=
EXTT8=
EXTT9=
EXTT10=
EXTT11=
EXTT12=
EXTT13=
EXTT14=
EXTT15=
EXTT16=
EXTT17=
EXTT18=
EXTT19=
EXTT20=
EXTT21=
EXTT22=
EXTT23=
PLAYORDER=
